<svg xmlns="http://www.w3.org/2000/svg" viewBox="0 0 1024 1024" fill="none" role="img" aria-labelledby="title desc">
  <title id="title">MinimaPdf icon proposal A</title>
  <desc id="desc">Hub-style icon with a central document receiving and sending transformation arrows.</desc>
  <defs>
    <linearGradient id="bgA" x1="154" y1="126" x2="874" y2="902" gradientUnits="userSpaceOnUse">
      <stop offset="0" stop-color="#1A2233"/>
      <stop offset="0.52" stop-color="#111827"/>
      <stop offset="1" stop-color="#0B1220"/>
    </linearGradient>
    <linearGradient id="strokeA" x1="96" y1="96" x2="928" y2="928" gradientUnits="userSpaceOnUse">
      <stop offset="0" stop-color="#0F766E"/>
      <stop offset="0.55" stop-color="#59F2DE"/>
      <stop offset="1" stop-color="#1AA89A"/>
    </linearGradient>
    <radialGradient id="glowA" cx="0" cy="0" r="1" gradientUnits="userSpaceOnUse" gradientTransform="translate(514 514) rotate(90) scale(308)">
      <stop offset="0" stop-color="#4AF2DB" stop-opacity="0.28"/>
      <stop offset="0.62" stop-color="#4AF2DB" stop-opacity="0.08"/>
      <stop offset="1" stop-color="#4AF2DB" stop-opacity="0"/>
    </radialGradient>
    <linearGradient id="lineA" x1="330" y1="240" x2="722" y2="808" gradientUnits="userSpaceOnUse">
      <stop offset="0" stop-color="#74FFF1"/>
      <stop offset="0.5" stop-color="#40E8D1"/>
      <stop offset="1" stop-color="#21B8AB"/>
    </linearGradient>
    <linearGradient id="fillA" x1="228" y1="798" x2="798" y2="322" gradientUnits="userSpaceOnUse">
      <stop offset="0" stop-color="#76FFF1"/>
      <stop offset="0.5" stop-color="#49F2DC"/>
      <stop offset="1" stop-color="#29CCBA"/>
    </linearGradient>
  </defs>

  <rect x="96" y="96" width="832" height="832" rx="176" fill="url(#bgA)"/>
  <rect x="96" y="96" width="832" height="832" rx="176" stroke="url(#strokeA)" stroke-width="12"/>
  <rect x="118" y="118" width="788" height="788" rx="156" stroke="#FFFFFF" stroke-opacity="0.08" stroke-width="2"/>
  <circle cx="512" cy="512" r="276" fill="url(#glowA)"/>

  <path
    d="M386 250H548L678 380V766C678 789.196 659.196 808 636 808H386C362.804 808 344 789.196 344 766V292C344 268.804 362.804 250 386 250Z"
    stroke="url(#lineA)"
    stroke-width="32"
    stroke-linejoin="round"
  />
  <path
    d="M548 250V344C548 364.987 565.013 382 586 382H678"
    stroke="url(#lineA)"
    stroke-width="32"
    stroke-linecap="round"
    stroke-linejoin="round"
  />

  <path d="M182 520H368V470H434L322 588L210 470H276V520H182Z" fill="url(#fillA)"/>
  <path d="M468 846V650H412L512 518L612 650H556V846H468Z" fill="url(#fillA)"/>
  <path d="M478 636L686 428L644 386L814 344L772 514L730 472L522 680L478 636Z" fill="url(#fillA)"/>

  <path
    d="M438 448H582"
    stroke="#E8FFFB"
    stroke-opacity="0.28"
    stroke-width="24"
    stroke-linecap="round"
  />
  <path
    d="M438 522H612"
    stroke="#E8FFFB"
    stroke-opacity="0.18"
    stroke-width="24"
    stroke-linecap="round"
  />
</svg>
