<svg xmlns="http://www.w3.org/2000/svg" viewBox="0 0 1024 1024" fill="none" role="img" aria-labelledby="title desc">
  <title id="title">MinimaPdf app icon</title>
  <desc id="desc">Minimal layered document icon with a split seam, an input arrow, and a conversion arrow.</desc>
  <defs>
    <linearGradient id="bgCm" x1="150" y1="122" x2="878" y2="904" gradientUnits="userSpaceOnUse">
      <stop offset="0" stop-color="#172334"/>
      <stop offset="0.5" stop-color="#101827"/>
      <stop offset="1" stop-color="#0A1120"/>
    </linearGradient>
    <linearGradient id="strokeCm" x1="96" y1="96" x2="928" y2="928" gradientUnits="userSpaceOnUse">
      <stop offset="0" stop-color="#11776E"/>
      <stop offset="0.56" stop-color="#5BF3E0"/>
      <stop offset="1" stop-color="#20AA9D"/>
    </linearGradient>
    <radialGradient id="glowCm" cx="0" cy="0" r="1" gradientUnits="userSpaceOnUse" gradientTransform="translate(512 514) rotate(90) scale(286)">
      <stop offset="0" stop-color="#4CF2DC" stop-opacity="0.22"/>
      <stop offset="0.58" stop-color="#4CF2DC" stop-opacity="0.07"/>
      <stop offset="1" stop-color="#4CF2DC" stop-opacity="0"/>
    </radialGradient>
    <linearGradient id="lineCm" x1="290" y1="240" x2="774" y2="804" gradientUnits="userSpaceOnUse">
      <stop offset="0" stop-color="#7EFFF2"/>
      <stop offset="0.48" stop-color="#47EAD3"/>
      <stop offset="1" stop-color="#23B8AB"/>
    </linearGradient>
    <linearGradient id="fillCm" x1="214" y1="802" x2="810" y2="326" gradientUnits="userSpaceOnUse">
      <stop offset="0" stop-color="#7DFFF2"/>
      <stop offset="0.5" stop-color="#4CF1DC"/>
      <stop offset="1" stop-color="#29CABA"/>
    </linearGradient>
  </defs>

  <rect x="96" y="96" width="832" height="832" rx="176" fill="url(#bgCm)"/>
  <rect x="96" y="96" width="832" height="832" rx="176" stroke="url(#strokeCm)" stroke-width="12"/>
  <rect x="118" y="118" width="788" height="788" rx="156" stroke="#FFFFFF" stroke-opacity="0.08" stroke-width="2"/>
  <circle cx="512" cy="512" r="264" fill="url(#glowCm)"/>

  <path
    d="M398 238H638L752 352V622"
    stroke="url(#lineCm)"
    stroke-opacity="0.28"
    stroke-width="18"
    stroke-linecap="round"
    stroke-linejoin="round"
  />
  <path
    d="M356 276H596L712 392V664"
    stroke="url(#lineCm)"
    stroke-opacity="0.48"
    stroke-width="22"
    stroke-linecap="round"
    stroke-linejoin="round"
  />

  <path
    d="M314 316H556L674 434V714C674 736.091 656.091 754 634 754H314C291.909 754 274 736.091 274 714V356C274 333.909 291.909 316 314 316Z"
    stroke="url(#lineCm)"
    stroke-width="30"
    stroke-linejoin="round"
  />
  <path
    d="M556 316V402C556 419.673 570.327 434 588 434H674"
    stroke="url(#lineCm)"
    stroke-width="30"
    stroke-linecap="round"
    stroke-linejoin="round"
  />

  <path
    d="M462 454L424 530L462 606"
    stroke="url(#lineCm)"
    stroke-width="30"
    stroke-linecap="round"
    stroke-linejoin="round"
  />
  <path
    d="M550 454L512 530L550 606"
    stroke="url(#lineCm)"
    stroke-width="30"
    stroke-linecap="round"
    stroke-linejoin="round"
  />

  <path
    d="M194 598H348V550H414L318 666L222 550H288V598H194Z"
    fill="url(#fillCm)"
  />
  <path
    d="M524 642L672 494H632L696 404L786 434L752 468L604 616L524 642Z"
    fill="url(#fillCm)"
  />
</svg>
